<svg width="20" height="22" viewBox="0 0 20 22" fill="none" xmlns="http://www.w3.org/2000/svg">
<path d="M0 19.923V8.128C0 7.74645 0.0853331 7.385 0.256 7.04367C0.426889 6.70211 0.662889 6.42089 0.964 6.2L8.554 0.482001C8.97511 0.160667 9.45645 0 9.998 0C10.5396 0 11.0222 0.160667 11.446 0.482001L19.036 6.2C19.3371 6.42089 19.5731 6.70211 19.744 7.04367C19.9147 7.385 20 7.74645 20 8.128V19.923C20 20.4683 19.803 20.938 19.409 21.332C19.015 21.726 18.5453 21.923 18 21.923H13.7437C13.4021 21.923 13.1159 21.8074 12.885 21.5763C12.6539 21.3454 12.5383 21.0592 12.5383 20.7177V14.205C12.5383 13.8637 12.4229 13.5774 12.192 13.3463C11.9611 13.1154 11.6749 13 11.3333 13H8.66667C8.32511 13 8.03889 13.1154 7.808 13.3463C7.57711 13.5774 7.46167 13.8637 7.46167 14.205V20.7177C7.46167 21.0592 7.34611 21.3454 7.115 21.5763C6.88411 21.8074 6.59789 21.923 6.25633 21.923H2C1.45467 21.923 0.985 21.726 0.591 21.332C0.197 20.938 0 20.4683 0 19.923Z" fill="#35373F"/>
</svg>
